<svg width="17" height="17" viewBox="0 0 17 17" fill="none" xmlns="http://www.w3.org/2000/svg">
<path d="M7.32951 3.61C9.56751 1.087 13.0495 0 16.2495 0C16.4484 0 16.6392 0.0790175 16.7798 0.21967C16.9205 0.360322 16.9995 0.551088 16.9995 0.75C16.9995 3.95 15.9125 7.432 13.3895 9.67C13.3285 10.686 13.0145 11.703 12.5655 12.596C12.0655 13.59 11.3705 14.483 10.5925 15.074C9.83151 15.652 8.84751 16.037 7.87551 15.675C6.95551 15.332 6.33551 14.425 5.97551 13.137L3.86251 11.023C2.57451 10.664 1.66751 10.044 1.32451 9.124C0.962514 8.152 1.34751 7.168 1.92551 6.407C2.51651 5.629 3.40951 4.934 4.40351 4.434C5.29651 3.985 6.31351 3.671 7.32851 3.611M5.99951 5.392C5.68346 5.49756 5.37534 5.62555 5.07751 5.775C4.24151 6.196 3.54451 6.757 3.12051 7.315C2.68351 7.891 2.62751 8.325 2.73051 8.601C2.81351 8.827 3.08251 9.158 3.82451 9.437C3.99351 9.058 4.23651 8.534 4.54151 7.933C4.92951 7.17 5.42351 6.272 5.99951 5.392ZM7.56351 13.177C7.84151 13.919 8.17351 14.187 8.39951 14.272C8.67451 14.374 9.10951 14.318 9.68551 13.882C10.2435 13.457 10.8045 12.76 11.2255 11.924C11.3768 11.6233 11.5045 11.316 11.6085 11.002C10.7888 11.5336 9.94094 12.0203 9.06851 12.46C8.46651 12.765 7.94251 13.008 7.56351 13.177ZM1.53451 12.505C1.9376 12.1683 2.45027 11.9912 2.97525 12.0075C3.50022 12.0237 4.00098 12.232 4.38251 12.593L4.39151 12.603C5.19051 13.393 5.17751 14.657 4.49451 15.468C4.19951 15.82 3.79651 16.074 3.41751 16.26C3.03051 16.45 2.61351 16.593 2.24251 16.7C1.79652 16.8269 1.34295 16.9254 0.884514 16.995L0.860514 16.998L0.852514 16.999H0.849514C0.735291 17.0143 0.619081 17.0031 0.509905 16.9662C0.400728 16.9293 0.301521 16.8677 0.219985 16.7863C0.138449 16.7048 0.0767761 16.6057 0.0397546 16.4966C0.00273316 16.3874 -0.00864139 16.2712 0.00651382 16.157V16.154L0.00751374 16.146L0.0115139 16.122C0.0298545 15.9917 0.0518632 15.862 0.0775139 15.733C0.124514 15.482 0.198514 15.137 0.305514 14.762C0.417701 14.3574 0.564579 13.9633 0.744514 13.584C0.929514 13.204 1.18351 12.802 1.53451 12.505ZM12.1865 4.72C12.0459 4.57955 11.8553 4.50066 11.6565 4.50066C11.4578 4.50066 11.2671 4.57955 11.1265 4.72L10.4195 5.427C10.287 5.56917 10.2149 5.75722 10.2183 5.95152C10.2218 6.14582 10.3005 6.33121 10.4379 6.46862C10.5753 6.60604 10.7607 6.68475 10.955 6.68818C11.1493 6.6916 11.3373 6.61948 11.4795 6.487L12.1865 5.78C12.327 5.63937 12.4059 5.44875 12.4059 5.25C12.4059 5.05125 12.327 4.86063 12.1865 4.72Z" fill="white"/>
</svg>
