<svg width="168" height="45" viewBox="0 0 168 45" fill="none" xmlns="http://www.w3.org/2000/svg">
<g clip-path="url(#clip0_49_530)">
<path d="M6.11999 18.4275C6.93736 15.1457 8.7216 12.1851 11.2415 9.92934C13.7613 7.67359 16.9006 6.22669 20.2525 5.77619C23.6044 5.32568 27.0144 5.89233 30.0404 7.40269C33.0665 8.91306 35.5691 11.2975 37.224 14.247C35.721 14.3257 34.1685 14.6228 32.6182 15.0323C29.8687 15.759 26.7052 16.9628 23.1525 18.5153L23.1435 18.4972L21.096 19.4288C16.8007 21.3795 13.3627 22.7272 10.656 23.4427C7.85699 24.183 6.38099 24.0952 5.67674 23.8365C5.59604 22.8024 5.6096 21.7631 5.71724 20.7315C3.85874 21.0105 2.73374 22.0185 2.38274 22.9365C2.28104 23.1817 2.23631 23.4468 2.2519 23.7118C2.26749 23.9769 2.34299 24.2349 2.47274 24.4665C2.74499 24.9615 3.33899 25.524 4.47299 25.9447C5.84549 26.4532 7.99874 26.3902 11.0452 25.614C14.049 24.849 17.7367 23.4405 22.0545 21.4763C26.4217 19.4917 30.2422 18.0202 33.4282 17.2057C36.5715 16.4025 39.2872 16.1888 41.3302 16.9448C42.8152 17.496 43.902 18.3533 44.4982 19.44C45.1012 20.538 45.1372 21.7575 44.7232 22.8578C43.956 24.8873 41.742 26.3902 38.88 26.577C38.0616 29.8578 36.2768 32.8173 33.7569 35.072C31.2369 37.3267 28.098 38.7727 24.7467 39.2227C21.3954 39.6727 17.9862 39.1059 14.9607 37.5958C11.9353 36.0856 9.43308 33.7018 7.77824 30.753C9.27899 30.6742 10.8315 30.3772 12.3817 29.9678C15.1312 29.241 18.2947 28.0372 21.8475 26.4847L21.8565 26.5028L23.904 25.5712C28.1992 23.6205 31.6372 22.2728 34.344 21.5573C37.143 20.817 38.619 20.9048 39.3232 21.1635C39.4043 22.1998 39.3908 23.2414 39.2827 24.2752C41.1502 24.0007 42.2685 22.986 42.6172 22.0613C42.7171 21.8141 42.7609 21.5478 42.7453 21.2816C42.7298 21.0155 42.6553 20.7561 42.5272 20.5223C42.255 20.0273 41.6677 19.4692 40.5495 19.0553C39.177 18.5468 37.026 18.6098 33.984 19.386C30.987 20.151 27.3015 21.5618 22.986 23.526C18.6165 25.5105 14.7915 26.982 11.601 27.7965C8.45324 28.5975 5.73299 28.809 3.68999 28.0552C2.19374 27.4995 1.10249 26.6377 0.501739 25.551C0.214238 25.0328 0.0453306 24.4572 0.00720006 23.8658C-0.0309304 23.2744 0.0626661 22.6819 0.281239 22.131C1.05524 20.1105 3.26924 18.621 6.11999 18.4275Z" fill="#FF3CAC"/>
</g>
<path d="M63.4903 18.89C62.9477 18.274 62.3023 17.79 61.5543 17.438C60.8063 17.0713 60.0583 16.888 59.3103 16.888C58.5917 16.888 57.917 17.0273 57.2863 17.306C56.6703 17.57 56.1203 17.9513 55.6363 18.45C55.167 18.934 54.8003 19.4987 54.5363 20.144C54.2723 20.7893 54.1403 21.486 54.1403 22.234C54.1403 22.982 54.2723 23.686 54.5363 24.346C54.8003 24.9913 55.167 25.556 55.6363 26.04C56.1203 26.524 56.6703 26.9053 57.2863 27.184C57.917 27.4627 58.5917 27.602 59.3103 27.602C60.0583 27.602 60.799 27.4407 61.5323 27.118C62.2657 26.7807 62.9183 26.326 63.4903 25.754L65.2283 27.58C64.715 28.108 64.121 28.57 63.4463 28.966C62.7863 29.362 62.0897 29.67 61.3563 29.89C60.6377 30.0953 59.9043 30.198 59.1563 30.198C58.027 30.198 56.971 30 55.9883 29.604C55.0203 29.1933 54.1697 28.6287 53.4363 27.91C52.7177 27.1913 52.153 26.348 51.7423 25.38C51.3317 24.412 51.1263 23.378 51.1263 22.278C51.1263 21.1633 51.3317 20.1367 51.7423 19.198C52.153 18.2447 52.7323 17.4087 53.4803 16.69C54.2283 15.9713 55.0863 15.414 56.0543 15.018C57.037 14.622 58.1077 14.424 59.2663 14.424C60.0143 14.424 60.7403 14.5267 61.4443 14.732C62.163 14.9227 62.845 15.2013 63.4903 15.568C64.1357 15.92 64.7077 16.3527 65.2063 16.866L63.4903 18.89ZM72.3919 18.164C73.6092 18.164 74.6799 18.4133 75.6039 18.912C76.5426 19.4107 77.2686 20.1073 77.7819 21.002C78.3099 21.8967 78.5739 22.938 78.5739 24.126C78.5739 25.314 78.3099 26.3553 77.7819 27.25C77.2686 28.1447 76.5426 28.8487 75.6039 29.362C74.6799 29.8607 73.6092 30.11 72.3919 30.11C71.1599 30.11 70.0746 29.8607 69.1359 29.362C68.1972 28.8487 67.4639 28.1447 66.9359 27.25C66.4226 26.3553 66.1659 25.314 66.1659 24.126C66.1659 22.938 66.4226 21.8967 66.9359 21.002C67.4639 20.1073 68.1972 19.4107 69.1359 18.912C70.0746 18.4133 71.1599 18.164 72.3919 18.164ZM72.3919 20.474C71.7319 20.474 71.1452 20.6353 70.6319 20.958C70.1332 21.266 69.7446 21.6987 69.4659 22.256C69.1872 22.7987 69.0479 23.4293 69.0479 24.148C69.0479 24.8813 69.1872 25.5267 69.4659 26.084C69.7446 26.6413 70.1332 27.074 70.6319 27.382C71.1452 27.69 71.7319 27.844 72.3919 27.844C73.0372 27.844 73.6092 27.69 74.1079 27.382C74.6066 27.074 74.9952 26.6413 75.2739 26.084C75.5526 25.5267 75.6919 24.8813 75.6919 24.148C75.6919 23.4293 75.5526 22.7987 75.2739 22.256C74.9952 21.6987 74.6066 21.266 74.1079 20.958C73.6092 20.6353 73.0372 20.474 72.3919 20.474ZM88.0324 21.332C87.4604 20.9947 86.8664 20.738 86.2504 20.562C85.6344 20.3713 85.077 20.276 84.5784 20.276C84.109 20.276 83.7277 20.364 83.4344 20.54C83.141 20.7013 82.9944 20.98 82.9944 21.376C82.9944 21.7133 83.141 21.9847 83.4344 22.19C83.7424 22.3953 84.131 22.5713 84.6004 22.718C85.0697 22.85 85.5684 22.9967 86.0964 23.158C86.6244 23.3193 87.123 23.532 87.5924 23.796C88.0764 24.06 88.465 24.412 88.7584 24.852C89.0664 25.292 89.2204 25.8713 89.2204 26.59C89.2204 27.382 89.0077 28.042 88.5824 28.57C88.157 29.0833 87.5924 29.472 86.8884 29.736C86.1844 29.9853 85.4144 30.11 84.5784 30.11C83.6984 30.11 82.8184 29.9707 81.9384 29.692C81.073 29.4133 80.3324 29.0027 79.7164 28.46L80.7064 26.546C81.249 27.0153 81.887 27.382 82.6204 27.646C83.3684 27.8953 84.0577 28.02 84.6884 28.02C85.0257 28.02 85.3264 27.976 85.5904 27.888C85.8544 27.8 86.0597 27.6753 86.2064 27.514C86.353 27.338 86.4264 27.1107 86.4264 26.832C86.4264 26.4507 86.2797 26.1573 85.9864 25.952C85.693 25.732 85.3117 25.5487 84.8424 25.402C84.3877 25.2407 83.8964 25.0867 83.3684 24.94C82.8404 24.7787 82.3417 24.5733 81.8724 24.324C81.4177 24.06 81.0437 23.7153 80.7504 23.29C80.457 22.8647 80.3104 22.3 80.3104 21.596C80.3104 20.804 80.5157 20.1513 80.9264 19.638C81.337 19.1247 81.8797 18.7507 82.5544 18.516C83.229 18.2667 83.9624 18.142 84.7544 18.142C85.517 18.142 86.2797 18.252 87.0424 18.472C87.805 18.6773 88.4797 18.9707 89.0664 19.352L88.0324 21.332ZM100.076 23.444C100.076 22.5787 99.8483 21.904 99.3936 21.42C98.9536 20.936 98.3303 20.694 97.5236 20.694C96.5996 20.7087 95.8663 21.0533 95.3236 21.728C94.7956 22.388 94.5316 23.2167 94.5316 24.214H93.7616C93.7616 22.7913 93.9596 21.64 94.3556 20.76C94.7516 19.8653 95.3163 19.2127 96.0496 18.802C96.7976 18.3767 97.6703 18.164 98.6676 18.164C99.5623 18.164 100.325 18.3473 100.956 18.714C101.601 19.0807 102.092 19.6013 102.43 20.276C102.782 20.936 102.958 21.7353 102.958 22.674V30H100.076V23.444ZM108.502 23.444C108.502 22.5787 108.274 21.904 107.82 21.42C107.365 20.936 106.734 20.694 105.928 20.694C105.004 20.7087 104.278 21.0533 103.75 21.728C103.222 22.388 102.958 23.2167 102.958 24.214H102.188C102.188 22.7913 102.386 21.64 102.782 20.76C103.178 19.8653 103.742 19.2127 104.476 18.802C105.209 18.3767 106.082 18.164 107.094 18.164C107.974 18.164 108.729 18.3473 109.36 18.714C110.005 19.0807 110.504 19.6013 110.856 20.276C111.208 20.936 111.384 21.7353 111.384 22.674V30H108.502V23.444ZM91.6716 18.274H94.5316V30H91.6716V18.274ZM119.722 18.164C120.939 18.164 122.01 18.4133 122.934 18.912C123.873 19.4107 124.599 20.1073 125.112 21.002C125.64 21.8967 125.904 22.938 125.904 24.126C125.904 25.314 125.64 26.3553 125.112 27.25C124.599 28.1447 123.873 28.8487 122.934 29.362C122.01 29.8607 120.939 30.11 119.722 30.11C118.49 30.11 117.405 29.8607 116.466 29.362C115.527 28.8487 114.794 28.1447 114.266 27.25C113.753 26.3553 113.496 25.314 113.496 24.126C113.496 22.938 113.753 21.8967 114.266 21.002C114.794 20.1073 115.527 19.4107 116.466 18.912C117.405 18.4133 118.49 18.164 119.722 18.164ZM119.722 20.474C119.062 20.474 118.475 20.6353 117.962 20.958C117.463 21.266 117.075 21.6987 116.796 22.256C116.517 22.7987 116.378 23.4293 116.378 24.148C116.378 24.8813 116.517 25.5267 116.796 26.084C117.075 26.6413 117.463 27.074 117.962 27.382C118.475 27.69 119.062 27.844 119.722 27.844C120.367 27.844 120.939 27.69 121.438 27.382C121.937 27.074 122.325 26.6413 122.604 26.084C122.883 25.5267 123.022 24.8813 123.022 24.148C123.022 23.4293 122.883 22.7987 122.604 22.256C122.325 21.6987 121.937 21.266 121.438 20.958C120.939 20.6353 120.367 20.474 119.722 20.474ZM125.257 14.6H137.819V17.086H133.023V30H130.053V17.086H125.257V14.6ZM145.952 20.76C145.13 20.7013 144.419 20.826 143.818 21.134C143.216 21.4273 142.754 21.8527 142.432 22.41C142.109 22.9673 141.948 23.6053 141.948 24.324L141.178 24.236C141.178 22.9307 141.368 21.8307 141.75 20.936C142.131 20.0267 142.681 19.3373 143.4 18.868C144.118 18.3987 144.969 18.164 145.952 18.164V20.76ZM139.088 18.274H141.948V30H139.088V18.274ZM147.961 18.274H150.821V30H147.961V18.274ZM149.369 13.28C149.838 13.28 150.227 13.434 150.535 13.742C150.843 14.05 150.997 14.4387 150.997 14.908C150.997 15.3627 150.843 15.7513 150.535 16.074C150.227 16.382 149.838 16.536 149.369 16.536C148.914 16.536 148.533 16.382 148.225 16.074C147.917 15.7513 147.763 15.3627 147.763 14.908C147.763 14.4387 147.917 14.05 148.225 13.742C148.533 13.434 148.914 13.28 149.369 13.28ZM161.293 18.164C162.408 18.164 163.383 18.4133 164.219 18.912C165.055 19.4107 165.7 20.1147 166.155 21.024C166.624 21.9187 166.859 22.9673 166.859 24.17C166.859 25.3433 166.632 26.3773 166.177 27.272C165.722 28.152 165.077 28.8487 164.241 29.362C163.42 29.8607 162.452 30.11 161.337 30.11C160.296 30.11 159.401 29.8753 158.653 29.406C157.905 28.922 157.333 28.2327 156.937 27.338C156.541 26.4433 156.343 25.3873 156.343 24.17C156.343 22.9087 156.534 21.8307 156.915 20.936C157.311 20.0413 157.883 19.3593 158.631 18.89C159.379 18.406 160.266 18.164 161.293 18.164ZM160.655 20.43C160.01 20.43 159.43 20.5913 158.917 20.914C158.418 21.222 158.03 21.6547 157.751 22.212C157.472 22.7547 157.333 23.3853 157.333 24.104C157.333 24.8227 157.472 25.4607 157.751 26.018C158.03 26.5753 158.418 27.008 158.917 27.316C159.43 27.624 160.01 27.778 160.655 27.778C161.315 27.778 161.887 27.624 162.371 27.316C162.87 26.9933 163.258 26.5607 163.537 26.018C163.816 25.4607 163.955 24.8227 163.955 24.104C163.955 23.3853 163.816 22.7547 163.537 22.212C163.258 21.6547 162.87 21.222 162.371 20.914C161.887 20.5913 161.315 20.43 160.655 20.43ZM154.473 18.274H157.333V34.268H154.473V18.274Z" fill="white"/>
<defs>
<clipPath id="clip0_49_530">
<rect width="45" height="45" fill="white"/>
</clipPath>
</defs>
</svg>
